<?xml version="1.0" encoding="UTF-8" standalone="no"?>
<!-- Generator: Adobe Illustrator 19.0.0, SVG Export Plug-In . SVG Version: 6.00 Build 0)  -->

<svg
   version="1.1"
   id="Layer_1"
   x="0px"
   y="0px"
   viewBox="0 0 348 134"
   xml:space="preserve"
   sodipodi:docname="flixlogo.svg"
   width="348"
   height="134"
   inkscape:version="1.2 (dc2aedaf03, 2022-05-15)"
   xmlns:inkscape="http://www.inkscape.org/namespaces/inkscape"
   xmlns:sodipodi="http://sodipodi.sourceforge.net/DTD/sodipodi-0.dtd"
   xmlns="http://www.w3.org/2000/svg"
   xmlns:svg="http://www.w3.org/2000/svg"><defs
   id="defs126" /><sodipodi:namedview
   id="namedview124"
   pagecolor="#505050"
   bordercolor="#ffffff"
   borderopacity="1"
   inkscape:showpageshadow="0"
   inkscape:pageopacity="0"
   inkscape:pagecheckerboard="1"
   inkscape:deskcolor="#505050"
   showgrid="false"
   inkscape:zoom="1.6835938"
   inkscape:cx="165.71693"
   inkscape:cy="65.930392"
   inkscape:window-width="1920"
   inkscape:window-height="1017"
   inkscape:window-x="1912"
   inkscape:window-y="-8"
   inkscape:window-maximized="1"
   inkscape:current-layer="Layer_1" />
<g
   id="g91"
   transform="matrix(0.24215349,0,0,0.24215349,222.73782,30.073674)">
	<path
   style="fill:#3083c9"
   d="M 494.345,423.724 H 17.655 C 7.901,423.724 0,415.823 0,406.069 V 105.931 C 0,96.177 7.901,88.276 17.655,88.276 h 476.69 c 9.754,0 17.655,7.901 17.655,17.655 v 300.138 c 0,9.754 -7.901,17.655 -17.655,17.655"
   id="path65" />
	<g
   id="g89">
		<polygon
   style="fill:#ffffff"
   points="105.931,123.586 35.31,123.586 35.31,158.897 105.931,158.897 "
   id="polygon67" />
		<polygon
   style="fill:#ffffff"
   points="211.862,123.586 141.241,123.586 141.241,158.897 211.862,158.897 "
   id="polygon69" />
		<polygon
   style="fill:#ffffff"
   points="317.793,123.586 247.172,123.586 247.172,158.897 317.793,158.897 "
   id="polygon71" />
		<polygon
   style="fill:#ffffff"
   points="423.724,123.586 353.103,123.586 353.103,158.897 423.724,158.897 "
   id="polygon73" />
		<polygon
   style="fill:#ffffff"
   points="512,123.586 459.034,123.586 459.034,158.897 512,158.897 "
   id="polygon75" />
		<polygon
   style="fill:#ffffff"
   points="105.931,353.103 35.31,353.103 35.31,388.414 105.931,388.414 "
   id="polygon77" />
		<polygon
   style="fill:#ffffff"
   points="211.862,353.103 141.241,353.103 141.241,388.414 211.862,388.414 "
   id="polygon79" />
		<polygon
   style="fill:#ffffff"
   points="317.793,353.103 247.172,353.103 247.172,388.414 317.793,388.414 "
   id="polygon81" />
		<polygon
   style="fill:#ffffff"
   points="423.724,353.103 353.103,353.103 353.103,388.414 423.724,388.414 "
   id="polygon83" />
		<polygon
   style="fill:#ffffff"
   points="512,353.103 459.034,353.103 459.034,388.414 512,388.414 "
   id="polygon85" />
		<polygon
   style="fill:#ffffff"
   points="194.207,317.793 194.207,194.207 317.793,256 "
   id="polygon87" />
	</g>
</g>
<g
   id="g93">
</g>
<g
   id="g95">
</g>
<g
   id="g97">
</g>
<g
   id="g99">
</g>
<g
   id="g101">
</g>
<g
   id="g103">
</g>
<g
   id="g105">
</g>
<g
   id="g107">
</g>
<g
   id="g109">
</g>
<g
   id="g111">
</g>
<g
   id="g113">
</g>
<g
   id="g115">
</g>
<g
   id="g117">
</g>
<g
   id="g119">
</g>
<g
   id="g121">
</g>
<text
   xml:space="preserve"
   style="font-style:normal;font-variant:normal;font-weight:normal;font-stretch:normal;font-size:164.385px;font-family:Bahnschrift;-inkscape-font-specification:'Bahnschrift, Normal';font-variant-ligatures:normal;font-variant-caps:normal;font-variant-numeric:normal;font-variant-east-asian:normal;fill:#ffffff;stroke-width:13.6987"
   x="-12.733096"
   y="117.83961"
   id="text396"
   transform="scale(0.88965938,1.1240257)"><tspan
     id="tspan394"
     x="-12.733096"
     y="117.83961"
     sodipodi:role="line"
     style="font-style:normal;font-variant:normal;font-weight:normal;font-stretch:normal;font-size:164.385px;font-family:Bahnschrift;-inkscape-font-specification:'Bahnschrift, Normal';font-variant-ligatures:normal;font-variant-caps:normal;font-variant-numeric:normal;font-variant-east-asian:normal;fill:#ffffff;stroke-width:13.6987">Flix</tspan></text></svg>
